<?xml version="1.0" encoding="UTF-8" standalone="no"?>
<!DOCTYPE svg PUBLIC "-//W3C//DTD SVG 1.1//EN" "http://www.w3.org/Graphics/SVG/1.1/DTD/svg11.dtd">
<svg width="100%" height="100%" viewBox="0 0 4167 2080" version="1.1" xmlns="http://www.w3.org/2000/svg" xmlns:xlink="http://www.w3.org/1999/xlink" xml:space="preserve" xmlns:serif="http://www.serif.com/" style="fill-rule:evenodd;clip-rule:evenodd;stroke-linejoin:round;stroke-miterlimit:2;">
    <g transform="matrix(4.16667,0,0,4.16667,0,0)">
        <path d="M280.415,470.788C279.448,470.646 277.959,470.714 277.309,469.84C276.6,468.894 277.748,467.295 278.224,466.447C278.809,465.334 279.523,464.307 280.167,463.271C280.713,462.433 281.873,460.274 282.927,461.766C283.269,462.309 283.358,463.172 283.544,463.832L284.121,465.681C284.573,466.945 285.103,468.15 285.269,469.444C285.745,472.478 282.007,471.018 280.415,470.788ZM293.832,468.785C293.542,466.412 292.746,464.109 292.02,461.818C291.375,459.466 290.798,457.123 290.071,454.833C289.523,452.775 288.668,450.886 288.336,448.794C287.947,446.619 287.329,445.05 284.979,444.708C283.913,444.271 282.411,444.899 281.67,445.637C280.916,446.446 280.4,447.569 279.905,448.555C278.665,450.777 277.218,452.964 275.918,455.105C274.612,457.314 272.869,459.106 271.709,461.268C270.529,463.566 269.545,465.964 268.176,468.093C266.979,470.034 265.521,471.799 264.323,473.743L262.479,476.722C261.944,477.491 261.173,478.435 261.17,479.424C261.015,481.941 263.976,482.442 265.794,482.563C268.223,482.845 269.351,481.388 270.74,479.613C271.352,478.785 272.105,477.977 273.251,477.863C274.178,477.784 275.194,478.074 276.174,478.146C277.842,478.317 279.53,478.349 281.258,478.601C282.917,478.839 284.939,478.994 286.459,479.708C288.502,480.709 287.962,483.456 289.074,485.027C289.774,486.047 290.986,486.435 292.092,486.594C293.128,486.746 294.293,486.986 295.312,486.778C297.999,486.252 297.343,483.475 296.844,481.569C295.699,477.31 294.325,473.158 293.832,468.785Z" style="fill:white;fill-rule:nonzero;"/>
        <path d="M348.344,452.095C346.975,451.746 345.352,451.159 344.058,452.15C342.841,453.078 342.677,454.673 342.536,456.064C342.377,458.998 341.594,461.863 341.435,464.794C341.254,467.934 340.934,471.06 340.617,474.184C340.453,475.781 340.401,477.67 339.759,479.15C339.206,480.426 337.843,481.411 336.655,482.062C335.381,482.843 333.574,483.362 332.047,483.203C329.121,482.974 326.412,480.665 325.569,477.913C324.672,475.012 325.323,472.062 325.822,469.236C326.132,467.585 326.377,465.854 326.409,464.173C326.441,462.493 326.32,460.936 326.628,459.285C326.984,457.847 327.406,456.484 327.554,455.026C327.703,453.568 327.941,451.907 326.861,450.816C325.787,449.654 324.168,449.699 322.703,449.619C321.369,449.624 319.825,449.607 318.935,450.777C318.204,451.755 318.325,453.313 318.273,454.501C318.181,456.107 318.156,457.718 317.993,459.314C317.76,460.906 317.319,462.473 317.018,464.057C316.801,465.507 316.791,466.98 316.711,468.447C316.592,471.663 315.906,474.963 316.565,478.116C317.17,481.126 318.457,484.343 320.618,486.53C322.844,488.791 325.524,490.047 328.432,491.116C331.409,492.192 334.729,492.673 337.739,491.364C340.374,490.3 343.094,489.103 345.002,486.912C347.209,484.542 348.339,481.711 349.214,478.641C350.159,475.58 350.268,472.434 350.595,469.238C350.694,467.565 350.942,465.835 351.182,464.173C351.344,462.577 351.153,461.015 351.17,459.473C351.185,458.63 351.277,457.728 351.502,456.91C351.649,456.151 351.936,455.41 351.735,454.619C351.406,453.041 349.713,452.448 348.344,452.095Z" style="fill:white;fill-rule:nonzero;"/>
        <path d="M395.699,455.247C393.483,454.897 391.378,454.971 389.139,454.971C386.975,454.902 384.836,454.419 382.746,454.287C382.751,454.217 376.6,454.106 375.899,454.133C373.73,454.133 370.552,453.513 369.751,456.191C369.136,458.181 368.938,461.318 371.178,462.369C372.198,462.852 373.526,462.867 374.642,462.939C375.891,463.088 377.451,462.765 378.601,463.4C379.414,463.801 379.496,464.714 379.444,465.552L379.208,469.246C379.067,471.474 378.579,473.683 378.368,475.907C378.234,477.997 378.237,480.169 378.244,482.265C378.259,484.226 378.207,486.183 378.147,488.206C378.023,490.159 376.96,492.608 378.534,494.25C379.454,495.216 380.641,495.221 381.906,495.162C382.815,495.15 383.795,495.142 384.724,494.849C387.159,493.957 386.764,491.341 386.896,489.252C387.109,487.025 387.523,484.883 387.531,482.573C387.456,478.232 388.218,473.941 388.076,469.526C388.049,467.776 387.967,464.623 390.238,464.136C392.437,463.645 394.829,464.565 397.033,464.005C399.237,463.447 399.678,460.886 399.732,458.93C399.747,456.484 397.846,455.591 395.699,455.247Z" style="fill:white;fill-rule:nonzero;"/>
        <path d="M448.875,458.117C447.566,457.453 445.196,457.247 443.855,457.767C442.444,458.289 441.914,459.741 441.668,461.06C441.272,462.796 441.083,464.466 441.314,466.291C441.475,467.971 441.569,469.65 441.384,471.323C441.2,472.924 440.208,473.386 438.743,473.343C435.461,473.252 432.104,473.44 428.832,473.068C427.019,472.88 426.199,472.228 426.11,470.409C425.946,468.799 425.991,467.124 425.969,465.445C425.946,463.767 426.06,462.166 425.966,460.485C425.936,459.017 425.342,457.884 423.884,457.495C423.053,457.261 422.21,457.377 421.444,457.287C420.678,457.267 419.907,457.314 419.272,457.574C417.785,458.303 417.671,459.905 417.559,461.37C417.262,464.575 417.101,467.852 417.009,471.134C416.96,472.88 416.774,474.55 416.726,476.297C416.608,478.039 416.841,479.722 416.932,481.472C417.021,483.29 416.833,485.033 416.645,486.773C416.526,488.515 416.062,490.179 416.154,491.857C416.256,493.257 416.343,495.147 417.289,496.29C418.236,497.433 419.845,497.339 421.241,497.379C422.567,497.413 424.104,497.388 424.91,496.082C425.641,494.844 425.346,492.881 425.388,491.414C425.435,489.671 425.624,487.927 425.674,486.183C425.706,484.998 425.344,482.96 426.62,482.228C427.329,481.899 428.302,482.068 429.07,482.088C429.905,482.181 430.743,482.204 431.581,482.226C433.396,482.276 435.141,482.326 436.886,482.305C438.076,482.265 440.25,481.978 440.699,483.386C440.954,484.234 440.783,485.414 440.689,486.252L440.488,488.481C440.369,490.223 440.325,491.83 440.486,493.58C440.585,495.05 440.679,496.728 441.906,497.809C443.067,498.752 445.022,498.737 446.423,498.635C447.824,498.533 449.036,497.661 449.353,496.272C449.676,494.673 449.304,492.985 449.49,491.314C449.748,489.577 449.933,487.906 449.983,486.16C449.958,484.482 449.866,482.804 449.983,481.13C450.099,479.457 450.211,477.922 450.117,476.244C449.931,472.955 450.372,469.615 450.533,466.336L450.544,465.988C450.544,465.988 450.595,461.588 450.536,461.169C450.432,459.907 450.045,458.779 448.875,458.117Z" style="fill:white;fill-rule:nonzero;"/>
        <path d="M496.374,489.604C493.158,489.068 489.673,489.514 486.46,489.47L481.715,489.507C481.016,489.512 480.178,489.519 479.754,488.895C479.333,488.409 479.467,487.571 479.462,486.941C479.454,486.172 479.449,485.404 479.372,484.638C479.298,484.011 479.293,483.243 479.848,482.752C480.401,482.255 481.381,482.39 482.149,482.455C482.918,482.519 483.683,482.511 484.521,482.504L484.594,482.504C484.594,482.504 489.128,482.33 489.547,482.326C491.011,482.315 492.546,482.162 493.515,480.897C494.344,479.777 494.398,477.89 494.041,476.638C493.176,473.292 488.295,473.748 485.712,473.839C484.035,473.852 482.154,474.286 480.548,473.951C478.938,473.614 478.924,471.73 478.914,470.47C478.973,469.216 478.891,467.541 480.282,466.97C481.606,466.402 483.49,466.457 484.955,466.445C488.307,466.42 491.661,466.811 495.008,466.578C496.404,466.427 497.938,466.137 498.555,464.665C499.034,463.405 499.155,461.308 498.868,459.984C498.003,456.642 492.982,457.448 490.473,457.748C487.057,458.263 483.701,457.8 480.282,457.757C478.676,457.767 477.072,457.922 475.466,458.004C474.141,458.154 472.253,457.678 471.073,458.387C469.682,459.166 470.257,461.394 470.267,462.652C470.351,464.396 470.224,466.073 470.237,467.818C470.182,469.563 470.264,471.378 470.069,473.123C469.942,474.729 469.816,476.336 469.967,478.011C470.12,479.685 470.274,481.358 470.287,483.035C470.368,484.711 470.173,486.386 470.115,488.062C469.989,489.738 470.002,491.414 469.945,493.089C469.957,494.554 469.483,496.513 470.192,497.904C470.901,499.292 472.994,499 474.318,498.918C475.924,498.905 477.6,498.893 479.204,498.742C482.692,498.504 486.255,498.826 489.742,498.518C491.488,498.365 493.302,498.352 495.048,498.41C496.512,498.466 497.839,498.384 498.736,496.984C499.423,495.722 499.408,493.838 499.329,492.371C499.245,490.697 497.913,489.869 496.374,489.604Z" style="fill:white;fill-rule:nonzero;"/>
        <path d="M553.553,485.441C553.484,483.838 553.132,482.176 553.06,480.57C552.98,478.755 553.323,476.996 553.315,475.248C553.234,471.755 552.316,468.373 552.234,464.95C552.227,463.132 552.287,461.313 552.346,459.493C552.416,457.881 551.999,456.365 550.427,455.593C549.074,455.023 546.991,455.324 545.679,455.73C544.026,456.295 543.246,457.585 543.178,459.265C542.921,462.912 543.918,466.504 544.078,470.2L544.084,470.341C544.155,470.337 544.203,474.598 544.15,475.022C544.118,475.86 544.529,478.92 543.57,479.31C542.542,479.774 540.95,476.978 540.504,476.368C539.321,474.883 538.002,473.472 536.954,471.911C535.982,470.485 535.491,468.83 534.452,467.476C533.269,465.994 531.956,464.721 530.979,463.157C530.005,461.66 529.236,460.088 528.332,458.59C527.354,457.024 525.944,456.736 524.195,456.744C522.59,456.744 520.341,456.494 518.987,457.53C517.5,458.645 517.651,460.524 517.586,462.205C517.591,463.953 517.882,465.757 518.029,467.501C518.266,471.334 518.296,475.175 518.672,479.004C518.974,482.695 518.854,486.337 519.012,489.961C519.09,491.707 518.841,494.024 519.682,495.666C520.451,497.24 522.344,497.366 523.951,497.363C525.562,497.433 527.233,497.289 528.074,495.717C528.852,494.353 528.627,492.405 528.559,490.873C528.482,489.128 528.123,487.326 528.049,485.583C527.977,483.976 528.049,482.437 528.049,480.828C528.039,479.013 527.821,477.204 527.741,475.388C527.715,474.764 527.724,473.435 528.713,473.671C529.35,473.852 529.879,474.74 530.178,475.215C531.299,476.841 532.214,478.549 533.329,480.109C534.45,481.735 535.633,483.222 536.683,484.854C537.729,486.416 538.57,488.057 539.685,489.545L543.31,494.14C544.495,495.623 545.717,496.412 547.606,496.465C549.148,496.541 551.183,496.728 552.47,495.764C554.163,494.572 553.729,492.633 553.583,490.893C553.431,489.011 553.563,487.258 553.553,485.441Z" style="fill:white;fill-rule:nonzero;"/>
        <path d="M595.392,452.058C593.149,452.031 591.079,452.408 588.863,452.725C586.714,452.968 584.527,452.795 582.442,452.964C582.434,452.894 576.336,453.668 575.647,453.792C573.5,454.106 570.267,453.947 569.858,456.712C569.536,458.769 569.789,461.898 572.156,462.617C573.234,462.949 574.551,462.775 575.664,462.683C576.921,462.652 578.419,462.111 579.645,462.572C580.509,462.855 580.721,463.748 580.789,464.58L581.086,468.269C581.264,470.496 581.098,472.749 581.207,474.982C581.376,477.067 581.688,479.212 581.996,481.289C582.293,483.225 582.521,485.167 582.752,487.179C582.91,489.128 582.207,491.707 584.002,493.099C585.048,493.927 586.225,493.761 587.467,493.521C588.364,493.377 589.334,493.231 590.209,492.809C592.49,491.575 591.726,489.047 591.557,486.959C591.448,484.727 591.552,482.548 591.228,480.262C590.531,475.979 590.67,471.626 589.899,467.277C589.619,465.547 589.089,462.441 591.262,461.635C593.37,460.835 595.866,461.402 597.966,460.535C600.068,459.664 600.137,457.068 599.912,455.125C599.575,452.701 597.564,452.093 595.392,452.058Z" style="fill:white;fill-rule:nonzero;"/>
        <path d="M630.481,477.828C630.156,476.177 629.901,474.521 629.718,472.855C629.378,469.803 629.385,466.713 629.046,463.661L629.031,463.521C629.1,463.514 627.481,454.002 627.397,453.238C627.167,451.789 626.772,450.147 625.3,449.537C623.904,448.992 621.708,449.445 620.436,450.008C618.964,450.663 618.324,451.857 618.492,453.384L619.055,458.449C619.412,461.64 619.357,464.947 620.059,468.1C620.691,471.261 621.393,474.412 621.547,477.697C621.685,480.842 621.477,484.026 622.109,487.184C622.394,488.488 623.089,489.675 624.345,490.238C625.67,490.794 627.467,490.523 628.76,490.17C630.127,489.807 631.22,488.912 631.414,487.487C631.659,485.915 631.052,484.224 630.881,482.7C630.697,481.036 630.726,479.415 630.481,477.828Z" style="fill:white;fill-rule:nonzero;"/>
        <path d="M685.531,473.103C684.492,472.267 682.998,471.216 681.588,471.212C680.174,471.207 678.984,472.226 677.9,473.021C675.803,474.598 673.171,475.406 670.585,475.572C669.39,475.607 668.138,475.721 666.961,475.399C665.646,475.096 664.194,474.323 663.155,473.485C661.095,471.953 659.677,469.481 659.104,467.025C658.554,464.707 658.366,461.982 659.238,459.739C659.826,458.452 660.483,457.158 661.368,455.97C662.191,454.862 663.135,453.595 664.457,452.978C666.318,452.213 668.656,451.798 670.701,451.783C673.306,451.754 676.304,453.431 678.079,450.632C679.406,448.605 680.885,445.214 677.752,444.048C674.993,443.043 671.904,442.648 669.001,442.579C667.647,442.494 666.405,442.675 665.134,443.146L660.875,444.896C658.155,446.072 655.495,447.658 653.884,450.152C653.147,451.389 652.48,452.616 651.813,453.84C651.097,455.216 650.371,456.523 649.883,458.005C649.513,459.33 649.084,460.732 649.079,462.143C649.005,463.564 649.364,465.066 649.567,466.445C649.778,467.897 649.931,469.424 650.341,470.778C650.74,472.057 651.338,473.242 652.002,474.412C653.353,476.896 655.505,479.05 657.741,480.838C659.968,482.558 662.58,484.011 665.453,484.368C667.963,484.635 670.677,484.871 673.232,484.497C673.243,484.566 676.024,483.808 676.23,483.778C679.15,482.998 681.84,481.617 684.173,479.722C685.177,478.87 686.691,477.66 686.984,476.277C687.226,475.042 686.483,473.812 685.531,473.103Z" style="fill:white;fill-rule:nonzero;"/>
        <path d="M334.868,17.983C335.369,18.994 336.003,19.926 336.566,20.86C337.717,23.01 337.905,25.378 339.189,27.447C340.404,29.52 341.472,31.538 342.146,33.866C342.456,35.103 342.63,36.419 342.937,37.656C343.314,38.886 343.825,40.036 344.407,41.182C345.327,43.07 346.103,45.813 348.337,46.616C349.49,47.015 350.749,46.985 351.944,47.032C352.997,47.087 354.202,47.273 355.209,46.702C357.283,45.488 356.855,42.718 357.403,40.785C357.732,39.64 358.352,38.608 358.751,37.458C359.091,36.451 359.222,35.46 359.21,34.409C359.306,32.088 359.988,30.075 360.653,27.852C361.191,25.779 361.044,23.06 362.229,21.215C363.66,18.929 365.234,23.778 365.519,24.735C367.002,29.312 368.276,33.903 370.571,38.135C371.141,39.139 371.573,40.155 371.937,41.249C372.299,42.27 372.589,43.298 373.422,44.072C374.947,45.634 377.644,45.21 379.593,45.056C382.111,44.997 383.371,43.217 383.753,40.943C384.191,38.529 384.839,36.094 385.134,33.62C385.242,32.351 385.354,31.082 385.748,29.862C386.152,28.776 386.777,27.819 387.186,26.805C387.65,25.578 387.759,24.309 388.078,23.025C388.339,21.882 388.664,20.665 388.993,19.52C389.722,17.219 390.161,14.804 390.53,12.395C390.709,11.12 390.885,9.774 391.133,8.493C391.323,7.357 391.658,6.281 391.495,5.104C391.083,2.543 388.582,2.811 386.656,3.244C385.488,3.547 384.549,4.04 383.928,5.071C383.373,6.024 383.044,7.171 382.773,8.175C381.99,10.687 381.417,13.183 380.988,15.739C380.745,17.09 380.503,18.439 380.039,19.668L378.75,22.851C378.35,24.002 378.177,25.348 377.922,26.555C377.773,27.338 377.765,29.019 377.039,29.569C375.455,30.814 374.272,25.586 374.072,24.83C373.323,22.44 372.302,20.139 371.622,17.739C371.251,16.579 370.948,15.412 370.435,14.261C370.08,13.31 369.515,12.375 369.017,11.363C368.097,9.474 367.775,6.276 365.474,5.547C364.329,5.22 363.074,5.319 361.88,5.273C360.826,5.215 359.701,5.166 358.675,5.456C356.282,6.204 355.992,8.751 355.526,10.818C354.572,15.585 353.83,20.407 352.948,25.169C352.757,26.305 352.496,27.445 352.236,28.588C351.976,29.728 351.807,31.141 351.182,32.103C349.668,34.183 348.242,28.553 347.972,27.805C347.308,25.615 346.646,23.426 345.709,21.329C344.692,19.098 343.408,17.028 342.665,14.705C341.93,12.524 341.026,9.93 339.417,8.168C338.643,7.248 337.647,7.047 336.474,7.278C335.297,7.442 334.054,7.679 333.061,8.388C330.733,9.975 332.394,12.365 333.254,14.398C333.764,15.548 334.283,16.768 334.868,17.983Z" style="fill:white;fill-rule:nonzero;"/>
        <path d="M411.875,20.147C412.281,23.345 412.755,26.54 412.676,29.827C412.589,32.973 412.155,36.134 412.562,39.332C412.753,40.651 413.36,41.886 414.575,42.538C415.856,43.185 417.669,43.046 418.985,42.783C420.373,42.518 421.528,41.705 421.823,40.294C422.18,38.742 421.692,37.017 421.633,35.48C421.566,33.809 421.712,32.195 421.581,30.591C421.375,28.925 421.239,27.254 421.172,25.578C421.05,22.509 421.278,19.425 421.159,16.356L421.152,16.217C421.221,16.215 420.284,6.609 420.254,5.842C420.128,4.38 419.852,2.714 418.427,2.003C417.073,1.356 414.85,1.653 413.541,2.124C412.024,2.672 411.3,3.819 411.362,5.354L411.563,10.446C411.689,13.654 411.399,16.951 411.875,20.147Z" style="fill:white;fill-rule:nonzero;"/>
        <path d="M442.099,7.184L442.099,7.325C442.13,9.628 442.159,11.931 442.119,14.165C442.08,16.609 442.531,19.118 442.561,21.562C442.524,24.004 442.276,26.451 442.305,28.893C442.407,31.404 441.953,33.992 442.263,36.504C442.496,38.246 442.737,40.755 444.631,41.429C446.594,42.173 448.959,41.514 450.982,41.42C453.146,41.39 455.249,41.992 457.477,41.613C459.639,41.308 461.664,41.422 463.831,41.603C465.928,41.717 468.935,42.168 469.811,39.712C470.148,38.802 469.994,37.686 469.912,36.709C469.761,35.802 469.749,34.756 469.32,33.923C468.246,31.915 465.879,32.43 464.064,32.525C462.877,32.54 461.759,32.416 460.571,32.361C459.522,32.304 458.479,32.455 457.432,32.609C455.901,32.768 452.767,33.576 451.634,32.195C450.925,31.295 451.114,29.827 451.173,28.851C451.158,27.805 451.215,26.823 451.272,25.846C451.453,23.541 451.493,21.237 451.255,19.006C451.089,16.914 450.853,14.894 450.828,12.799C450.799,10.565 450.771,8.332 450.95,6.024C451.066,4.139 451.456,1.829 449.212,1.09C448.161,0.755 446.904,0.842 445.858,0.924C444.953,1.006 443.974,1.018 443.143,1.586C441.554,2.796 442.006,5.302 442.097,7.045L442.099,7.184Z" style="fill:white;fill-rule:nonzero;"/>
        <path d="M497.055,13.223C497.078,12.176 497.102,10.991 497.403,10.089C497.846,8.842 498.897,8.726 500.018,8.609C502.326,8.45 504.897,8.993 506.967,10.158C509.037,11.319 510.539,12.888 511.469,15.072C511.935,16.2 512.26,17.254 512.374,18.443C512.369,18.724 512.581,21.731 512.512,21.731C512.45,24.661 511.905,27.232 510.452,29.783C509.728,31.027 508.657,32.118 507.52,33.003C506.526,33.749 505.474,34.007 504.215,34.119C503.164,34.235 502.044,34.349 500.926,34.397C500.088,34.448 499.106,34.637 498.132,34.476C496.528,34.302 496.557,32.976 496.726,31.652C496.818,30.606 496.77,29.56 496.726,28.439C496.344,23.404 496.944,18.319 497.055,13.223ZM488.49,41.112C489.998,42.401 492.38,42.104 494.197,42.002C496.433,41.91 498.528,41.955 500.761,42.004C502.995,42.054 505.296,42.173 507.472,41.662C509.999,41.087 512.185,40.086 514.312,38.598C516.37,37.106 518.026,34.835 519.396,32.773C520.627,30.844 521.094,28.548 521.425,26.253C522.068,22.217 521.669,18.087 520.778,14.157C519.761,9.526 516.055,6.443 512.195,4.125C510.266,2.964 508.057,1.73 505.76,1.402C503.741,1.078 501.855,1.108 499.827,1.274C498.848,1.393 497.866,1.512 496.892,1.417C495.845,1.256 494.807,0.956 493.759,0.931C491.594,0.956 489.071,1.388 488.461,3.75C487.997,5.766 488.089,8.002 488.116,10.029C488.143,11.914 487.965,13.796 487.853,15.679C487.673,17.561 487.985,19.314 487.945,21.129C487.9,23.223 487.576,25.241 487.533,27.264L487.357,35.36C487.315,37.314 486.703,39.744 488.49,41.112Z" style="fill:white;fill-rule:nonzero;"/>
        <path d="M542.043,42.813C543.949,43.688 546.357,43.194 548.38,43.239C550.542,43.363 552.596,44.107 554.845,43.886C557.021,43.73 559.035,43.983 561.181,44.315C563.266,44.573 566.234,45.233 567.277,42.842C567.679,41.958 567.602,40.835 567.588,39.855C567.501,38.941 567.557,37.897 567.188,37.037C566.259,34.957 563.861,35.311 562.045,35.276C560.859,35.21 559.754,35.009 558.574,34.87C557.53,34.741 556.478,34.82 555.426,34.9C553.883,34.954 550.705,35.544 549.669,34.087C549.024,33.139 549.314,31.687 549.441,30.717C549.5,29.671 549.624,28.699 549.748,27.73C550.088,25.442 550.289,23.147 550.207,20.903C550.184,18.806 550.09,16.773 550.209,14.683C550.336,12.454 550.462,10.223 550.802,7.935C551.047,6.063 551.595,3.787 549.411,2.893C548.385,2.484 547.125,2.484 546.077,2.493C545.167,2.513 544.19,2.459 543.322,2.967C541.654,4.06 541.929,6.594 541.899,8.339L541.892,8.478L541.885,8.616C541.753,10.917 541.624,13.218 541.428,15.444C541.22,17.879 541.495,20.412 541.356,22.851C541.148,25.286 540.732,27.705 540.593,30.145C540.521,32.658 539.886,35.207 540.023,37.733C540.135,39.486 540.201,42.009 542.043,42.813Z" style="fill:white;fill-rule:nonzero;"/>
        <path d="M582.761,11.79C583.3,12.818 583.847,13.778 584.318,14.799C585.385,16.996 586.396,19.048 587.837,20.997C589.086,22.717 590.305,24.785 590.534,26.977C590.876,29.461 590.37,32.009 590.017,34.429C589.758,36.578 589.701,38.816 589.512,40.971C589.477,42.158 589.145,43.532 589.68,44.63C590.214,45.728 591.22,46.236 592.326,46.402C594.532,46.809 598.162,46.987 598.555,44.08C598.724,42.971 598.682,41.848 598.787,40.666L599.421,36.66C599.699,34.299 599.488,31.9 599.904,29.555C600.802,24.939 604.446,21.755 607.342,18.3C608.752,16.599 609.979,14.606 611.397,12.841C612.428,11.458 613.933,9.489 612.035,7.992C611.184,7.285 609.858,7.238 608.745,7.139C607.709,6.981 606.533,6.807 605.44,7.271C604.424,7.67 603.777,8.666 603.209,9.526C602.493,10.516 601.85,11.438 601.006,12.275C600.15,13.253 599.23,14.15 598.511,15.139C597.959,15.86 597.426,17.145 596.491,17.412C594.614,18.017 593.32,13.629 592.874,12.33C592.14,10.302 591.059,8.245 589.596,6.576C588.201,4.913 586.039,4.792 583.929,4.886C581.964,4.923 579.99,6.643 580.925,8.755C581.396,9.777 582.152,10.756 582.761,11.79Z" style="fill:white;fill-rule:nonzero;"/>
        <path d="M189.419,241.118C186.595,241.118 183.774,240.411 181.302,238.648L191.89,238.648C192.949,238.648 194.36,238.294 194.712,240.411C192.949,240.765 191.184,241.118 189.419,241.118ZM183.42,252.055C182.716,252.055 182.009,251.703 180.95,251.703C182.009,250.999 182.716,250.999 183.42,250.999L185.891,250.999C184.833,251.703 184.126,252.055 183.42,252.055ZM182.361,211.83C184.126,217.12 182.361,219.944 180.598,223.826C179.892,219.591 181.657,216.768 182.361,211.83ZM174.244,219.237C174.951,211.83 181.657,191.714 183.067,185.363C183.42,185.363 178.127,210.769 176.362,216.416C176.362,217.474 176.01,218.533 174.244,219.237ZM170.01,216.064C168.599,222.061 166.835,228.06 165.07,235.118C164.365,233.001 164.718,234.414 163.307,233.353C163.659,227.002 165.776,221.003 167.541,215.004C177.775,177.247 185.891,139.136 198.242,102.085C198.242,104.556 198.946,107.025 198.242,109.846C186.949,144.781 178.833,180.421 170.01,216.064ZM172.482,223.471C174.244,225.943 172.834,227.709 173.54,229.826C170.717,228.06 172.127,226.297 172.482,223.471ZM170.01,269.346C167.541,264.76 170.01,261.938 171.069,258.408C172.834,262.289 170.01,265.112 170.01,269.346ZM187.302,200.183L185.891,199.831C185.891,198.418 186.243,197.36 187.302,195.949C187.654,197.714 188.008,199.125 187.302,200.183ZM184.126,209.711C182.361,207.241 184.478,205.831 185.537,203.359C186.243,206.535 185.891,208.299 184.126,209.711ZM155.894,299.693C155.894,301.106 153.073,306.045 152.014,306.399C150.956,306.754 153.426,301.106 153.426,300.754C153.426,299.693 156.249,288.755 157.307,288.403C157.659,288.403 155.542,299.34 155.894,299.693ZM147.074,327.924C146.015,325.455 150.601,313.104 150.25,310.278C150.956,313.457 149.191,326.866 147.074,327.924ZM144.602,343.096C144.25,343.805 141.781,350.157 141.781,349.45C141.781,348.391 144.957,333.923 145.309,332.51C145.661,332.863 144.602,340.627 144.602,343.096ZM140.016,360.036L138.957,360.742C138.605,358.273 139.664,356.507 141.074,354.743C142.133,356.86 140.368,358.273 140.016,360.036ZM77.203,248.527C84.614,244.294 124.489,239.705 145.661,239.705C151.308,239.705 155.542,240.059 157.659,241.118C129.782,242.882 103.671,245.704 77.203,248.527ZM127.313,249.234C126.607,249.234 125.9,248.881 124.137,248.881C125.548,247.468 126.607,246.056 128.017,246.056C128.371,246.056 128.724,246.41 129.076,246.41C130.489,247.117 129.429,248.881 127.313,249.234ZM96.258,258.408L94.847,257.703C95.906,257.35 96.964,255.586 98.023,255.586C98.375,255.586 98.729,255.937 99.081,256.644C100.14,258.408 97.671,258.408 96.258,258.408ZM83.907,260.172C83.555,260.172 83.203,259.821 82.848,259.821L85.32,258.761C84.966,259.821 84.262,260.172 83.907,260.172ZM54.265,245C66.263,200.535 79.321,156.78 99.788,115.141C81.438,157.484 69.087,201.596 54.265,245ZM20.388,403.794C17.919,403.794 18.271,401.673 18.626,399.912C19.33,390.736 20.036,381.561 22.154,372.386C28.505,344.861 34.859,317.339 41.21,289.46C42.62,282.404 44.386,275.343 47.561,268.64C38.739,313.808 24.625,357.564 20.388,403.794ZM5.921,260.879C17.919,255.586 30.622,254.527 43.327,253.116C30.976,256.644 18.626,258.408 5.921,260.879ZM201.769,244.294C199.652,237.588 197.183,235.822 189.771,234.766C180.95,234.059 180.95,234.059 183.774,223.471C184.833,215.004 190.829,207.948 190.125,198.77C189.771,195.949 190.125,192.067 192.594,189.246C196.829,185.008 197.535,179.012 198.242,173.716C198.594,169.13 200.359,165.249 201.418,160.662C203.886,149.722 206.004,138.429 208.121,127.14C209.179,120.431 211.297,114.081 210.945,107.025C210.945,102.436 208.827,101.378 203.886,100.674C201.418,100.319 200.359,102.085 197.887,100.674C194.712,102.085 194.008,105.612 192.594,108.435C187.302,121.14 183.42,134.547 179.892,148.311C172.834,175.13 166.128,201.948 159.425,228.767C158.366,233.001 156.601,234.766 152.014,234.766C133.665,235.118 115.315,237.939 96.964,239.705C90.965,240.411 84.966,241.469 78.262,241.822C80.379,234.766 81.79,228.06 83.907,221.709C93.082,190.301 102.258,158.545 112.491,127.492C113.904,123.61 115.315,120.08 114.256,115.845C113.904,114.435 113.904,113.024 112.491,111.611C110.726,110.201 108.963,109.846 107.198,109.846L100.492,109.846C100.14,109.494 99.788,109.494 99.433,109.494C97.316,109.494 96.258,112.318 95.199,113.728C90.613,121.845 86.731,130.313 83.203,138.782C69.439,171.599 58.854,205.831 48.268,239.705C46.503,246.056 43.327,248.527 36.976,249.234C29.563,250.293 9.451,253.468 2.745,257.35C-0.43,259.116 -0.782,268.288 1.334,267.936C4.158,267.936 5.569,268.64 6.275,271.464C6.979,273.935 8.038,274.639 9.451,274.639C10.155,274.639 11.216,274.639 12.626,273.935C21.447,271.464 29.918,269.699 39.093,269.699C39.093,271.109 39.093,271.816 38.739,272.522C31.328,306.754 23.919,340.979 17.213,375.562C15.45,384.384 14.037,393.206 14.743,402.38C15.45,408.38 20.388,412.614 25.684,412.614C27.094,412.614 28.505,412.614 29.563,411.908C33.446,410.497 36.976,408.028 41.21,405.556C33.094,401.673 33.446,396.029 36.269,388.619C37.68,380.148 42.62,372.035 40.856,362.507C40.504,361.094 41.21,360.036 42.269,359.329C44.738,357.564 45.092,354.743 45.796,352.274C47.209,346.627 48.62,341.334 50.385,335.689C56.03,313.457 63.088,291.931 69.794,270.405C71.204,266.171 72.969,264.76 76.849,264.053C79.673,263.702 82.496,262.995 85.32,262.995C91.32,262.643 97.316,261.233 103.316,259.821C105.433,259.468 107.551,259.468 109.315,257.703C112.491,258.054 115.667,258.408 119.197,258.408C120.96,258.408 123.076,259.116 124.842,259.116C126.255,259.116 127.665,258.761 128.724,257.703C129.429,257.35 130.134,257.35 130.841,257.35C132.606,257.35 134.369,257.703 136.134,257.703C138.251,257.703 140.368,257.35 141.427,255.586L141.781,255.586C143.898,259.468 148.485,256.999 151.308,258.761L151.308,261.938C143.192,295.459 135.429,328.983 128.017,362.859C127.665,365.68 125.9,368.859 129.782,371.679C134.369,351.922 138.605,332.863 143.544,313.457C148.133,294.4 151.66,274.992 158.366,254.879C159.425,258.408 159.073,260.172 158.718,261.938C155.542,273.226 153.073,284.873 150.25,296.519C144.25,319.808 138.957,343.451 133.665,367.093C133.31,369.562 130.489,372.741 134.016,373.797C136.488,374.505 136.134,370.269 137.899,367.797C139.664,368.506 137.899,372.741 140.016,371.679C140.368,371.328 140.722,371.328 141.427,371.328L143.898,371.328C145.309,371.328 146.367,370.976 146.722,368.859C146.722,366.389 151.308,348.744 152.014,346.627C154.484,339.568 155.894,332.51 156.249,325.1C153.777,322.629 162.952,319.104 159.777,315.221C158.718,313.808 160.131,312.044 160.835,310.987C163.307,307.809 163.307,304.282 164.01,300.045C164.718,297.223 164.718,295.81 164.01,294.047C165.07,290.873 166.128,288.048 167.186,285.931C167.893,284.521 171.069,284.521 169.658,280.991C167.893,277.461 171.775,274.288 172.482,270.757C173.186,269.346 170.365,267.584 174.244,266.523C176.716,265.466 172.834,262.289 174.244,260.172C174.599,259.116 174.951,258.054 176.01,257.703C178.833,256.29 181.302,254.527 184.478,254.527C184.833,254.527 185.537,254.527 185.891,254.879C186.949,254.879 188.008,255.233 189.419,255.233C191.184,255.233 193.301,254.879 195.418,254.527C201.418,254.172 203.534,250.293 201.769,244.294Z" style="fill:white;fill-rule:nonzero;"/>
        <path d="M571.626,181.576C573.83,182.016 572.95,178.927 574.713,178.486C574.271,173.637 575.594,169.666 577.36,165.697C580.446,159.521 583.094,152.905 586.18,146.73C587.063,144.526 587.504,141.88 591.032,141.88L591.032,137.027C589.269,137.027 587.945,137.027 587.063,138.792C580.005,149.819 574.271,161.287 570.743,174.079C570.302,175.403 569.861,176.283 569.861,177.606C569.861,178.927 569.861,181.134 571.626,181.576Z" style="fill:white;fill-rule:nonzero;"/>
        <path d="M593.238,159.963L596.325,159.521C595.885,160.404 595.004,161.728 593.679,163.051C593.238,161.287 592.797,160.404 593.238,159.963ZM574.713,178.486L575.153,178.486C575.153,180.693 573.83,183.782 577.36,185.547C578.683,183.34 578.683,180.252 581.329,178.486C582.212,182.458 582.652,182.458 586.622,182.458C590.152,181.576 590.152,179.81 591.032,178.047C595.004,168.342 598.09,158.639 602.5,149.819C604.265,146.289 603.824,143.205 602.058,140.556C601.178,139.233 600.737,138.35 599.414,138.792C598.531,139.233 597.648,140.998 596.765,140.998C594.562,140.998 597.648,138.35 595.445,137.909C593.238,137.909 592.797,140.556 591.032,141.88L591.473,141.88C585.739,154.229 580.446,166.138 574.713,178.486Z" style="fill:white;fill-rule:nonzero;"/>
        <path d="M944.95,324.384L944.95,308.505C946.009,313.798 946.009,319.092 944.95,324.384ZM926.952,326.855C926.95,326.848 926.949,326.843 926.947,326.837C925.896,322.629 925.897,322.611 927.651,318.755C927.654,318.749 927.656,318.745 927.658,318.739C929.072,321.561 927.306,323.678 926.952,326.855ZM921.882,234.751C921.362,236.747 916.763,243.453 917.176,244.958C915.499,238.836 906.969,228.563 918.391,223.169C925.055,224.279 923.521,228.458 921.882,234.751ZM908.456,346.755C902.978,352.433 896.032,356.585 888.489,357.908C885.666,353.32 887.079,349.087 888.489,345.557C891.665,338.148 896.075,331.884 901.367,326.372C906.661,320.857 912.837,316.092 919.542,311.681C922.631,323.591 917.585,337.293 908.456,346.755ZM870.139,352.968C870.138,352.966 870.138,352.964 870.138,352.962C869.435,348.032 871.194,344.86 873.66,341.69C873.663,341.685 873.666,341.68 873.67,341.676C872.963,345.204 872.611,349.087 870.139,352.968ZM895.547,234.047L895.547,234.042C894.844,229.821 896.599,227.704 898.008,225.241C898.01,225.236 898.013,225.231 898.016,225.226C898.722,228.048 897.312,230.519 895.547,234.047ZM838.492,239.356C832.319,248.176 803.205,287.435 793.06,287.435C793.055,287.435 793.052,287.432 793.048,287.432C791.734,287.421 791.285,285.65 788.211,279.933C788.213,279.92 788.213,279.906 788.215,279.892C788.218,279.87 788.217,279.847 788.219,279.826C788.612,276.783 787.361,273.321 788.635,270.278C788.641,270.262 788.643,270.246 788.65,270.23C789.526,273.735 789.525,276.804 788.233,279.866C788.223,279.888 788.22,279.911 788.211,279.933C790.415,277.291 790.415,273.76 790.856,270.672C792.619,250.382 800.118,232.3 815.997,217.744C819.851,214.274 822.694,212.489 825.115,212.093C825.465,212.036 825.806,212.006 826.14,212.006C829.672,212.006 832.319,214.655 835.846,220.833C836.726,222.151 837.168,223.475 838.051,224.798C843.787,229.653 842.021,234.502 838.492,239.356ZM824.379,303.311C824.383,303.273 824.389,303.236 824.394,303.199C825.714,292.675 827.925,282.161 834.917,273.384C834.934,273.363 834.947,273.34 834.964,273.319C831.436,283.464 827.906,293.167 824.379,303.311ZM802.322,365.947C802.338,365.901 802.353,365.855 802.369,365.809C806.307,354.424 809.817,343.038 813.752,331.218C813.764,331.178 813.777,331.14 813.79,331.101C812.469,343.452 808.058,354.92 802.322,365.947ZM785.239,393.94C784.749,394.855 784.244,395.76 783.732,396.659C777.34,407.879 769.132,417.547 755.245,420.407C753.479,420.407 751.717,420.848 750.395,420.848C747.306,420.848 746.424,419.524 744.218,414.671C741.317,406.611 740.568,398.791 742.596,391.203C743.344,388.408 744.439,385.643 745.983,382.914C758.652,359.323 779.426,353.256 800.822,337.714C801.029,337.563 801.234,337.426 801.442,337.274C802.593,336.505 803.411,335.405 804.767,335.423C804.969,335.426 805.182,335.452 805.411,335.508C806.294,337.274 805.852,338.597 805.411,339.922C797.914,363.74 796.707,371.886 785.239,393.94ZM726.577,389.527C725.253,386.443 727.9,385.12 728.34,383.355C729.663,386.003 727.9,387.326 726.577,389.527ZM782.256,232.096C782.246,232.101 782.236,232.107 782.225,232.112C781.567,232.472 780.909,232.852 780.252,233.182C779.26,233.842 778.516,234.75 777.835,235.719C779.318,232.364 782.049,229.486 784.632,226.619C784.648,226.6 784.665,226.582 784.681,226.564C783.769,228.387 783.015,230.259 782.256,232.096ZM770.565,264.499L770.565,264.401C770.565,262.496 770.569,260.591 770.651,258.714C771.293,257.991 771.949,257.276 772.58,256.547C772.592,256.534 772.603,256.52 772.615,256.506C771.904,259.142 771.203,261.789 770.565,264.499ZM700.416,254.356C698.65,250.384 701.299,246.854 702.178,243.326C703.943,235.385 706.149,227.448 708.795,218.628C710.56,225.683 706.591,240.681 700.416,254.356ZM690.713,303.312C688.506,301.547 689.388,299.343 689.388,297.578C691.151,283.464 694.24,269.791 698.209,256.559C698.209,255.236 699.092,254.795 700.416,254.795C696.447,270.672 692.917,286.993 690.713,303.312ZM638.223,223.918C640.427,215.98 640.869,207.6 646.602,201.422C645.72,209.363 641.309,216.422 638.223,223.918ZM633.112,248.254L632.455,249.147C632.898,247.645 633.344,246.143 633.813,244.65L633.112,248.254ZM624.549,292.286C624.802,287.604 625.295,282.964 625.952,278.355C626.584,277.342 627.219,276.33 627.849,275.313L624.549,292.286ZM541.19,288.755C541.7,284.464 542.468,280.265 543.407,276.125C544.791,274.084 546.176,272.018 547.56,269.947C545.455,275.922 543.367,282.113 541.19,288.755ZM458.95,236.833C462.256,224.441 465.584,212.049 469.302,199.66C471.948,191.719 475.037,183.782 477.681,175.403C480.329,178.047 479.006,180.252 478.123,182.016C472.465,199.38 467.015,216.923 462.122,234.593C461.274,235.205 460.209,235.958 458.95,236.833ZM459.229,245.316C454.321,264.082 450.139,282.984 447.249,301.988C447.249,303.754 446.807,305.518 444.601,305.96C446.519,286.023 450.771,266.755 455.906,247.861L455.906,247.86C457.044,247.01 458.154,246.161 459.23,245.314C459.23,245.315 459.229,245.315 459.229,245.316ZM445.042,319.631C443.277,315.221 444.16,310.811 444.601,306.401C446.366,310.37 445.925,315.221 445.042,319.631ZM483.416,158.639C489.15,144.967 494.884,131.295 502.383,116.738C496.649,131.736 490.915,146.73 485.622,161.287C483.416,160.404 482.974,159.521 483.416,158.639ZM403.131,299.796C403.137,299.83 403.139,299.865 403.146,299.899C404.442,306.446 404.442,312.995 403.146,319.542C403.139,319.576 403.137,319.611 403.131,319.645L403.131,299.796ZM380.642,322.68C380.639,322.699 380.635,322.714 380.634,322.733C379.31,317.439 379.31,317.439 381.516,312.588C381.519,312.592 381.519,312.596 381.521,312.601C383.267,316.106 381.098,318.745 380.642,322.68ZM374.296,207.602C373.646,210.097 367.897,218.48 368.412,220.361C366.383,212.948 356.312,200.666 368.664,193.775C369.063,193.552 369.486,193.336 369.932,193.125C370.053,193.144 370.151,193.173 370.267,193.195C378.185,194.672 376.315,199.849 374.296,207.602ZM353.946,350.987C347.755,356.336 340.414,360.171 332.555,361.548C329.025,355.814 330.792,350.522 332.555,346.111C339.503,329.898 351.18,318.077 365.222,307.986C367.226,306.547 369.278,305.142 371.371,303.765C375.616,320.139 367.563,339.223 353.946,350.987ZM314.027,341.276C313.148,345.672 312.703,350.507 309.635,355.344C309.628,355.354 309.624,355.365 309.617,355.375C308.734,349.199 310.941,345.229 314.03,341.259C314.029,341.265 314.028,341.27 314.027,341.276ZM270.826,242.005C260.239,256.559 249.214,271.114 237.304,284.789C233.336,289.196 228.925,292.726 223.191,297.136C223.633,291.844 223.633,288.755 224.515,285.669C232.894,264.058 241.276,242.446 256.713,225.242C260.239,221.272 262.888,219.069 265.092,219.069C267.74,219.069 269.944,221.714 272.592,227.448C274.798,232.741 274.356,236.71 270.826,242.005ZM267.74,312.132C265.092,303.312 266.416,294.933 269.944,286.551L267.74,312.132ZM210.399,299.343C208.634,298.019 209.516,296.256 210.399,294.05C212.164,295.815 212.605,297.578 210.399,299.343ZM205.548,279.494C205.548,286.993 204.224,294.05 205.989,302.429C199.813,296.698 199.813,289.637 205.548,279.494ZM341.392,206.693C341.387,206.704 341.383,206.714 341.377,206.723C340.494,201.431 342.7,198.785 344.464,195.697C344.466,195.703 344.465,195.71 344.467,195.716C345.336,199.227 343.588,202.307 341.392,206.693ZM508.558,166.58C509.882,166.58 511.645,167.46 512.969,167.46L505.469,167.46C506.793,166.58 507.676,166.58 508.558,166.58ZM996.824,253.808C995.765,253.808 994.705,254.162 993.646,255.22C989.766,258.396 946.009,287.685 942.127,287.685C941.423,287.685 940.716,286.979 940.01,285.921C937.54,276.746 937.324,273.707 932.029,265.944C929.56,262.768 927.443,259.24 925.326,256.063C923.56,253.592 923.56,251.476 925.677,249.711C927.091,248.3 928.149,246.888 929.56,245.476C933.442,240.537 935.56,234.816 936.618,228.186C938.33,217.457 931.771,211.11 913.897,211.11C906.15,211.11 899.635,214.017 895.292,219.012C891.919,222.892 889.857,228.032 889.548,234.047C889.086,240.505 890.602,246.202 893.075,251.547C893.078,251.551 893.08,251.556 893.082,251.56L893.072,251.57L875.102,267.146C872.013,268.024 869.809,270.23 868.045,272.878C863.635,273.76 860.986,277.732 857.459,279.492C855.696,280.375 854.373,282.139 852.607,282.139L852.597,282.139C851.277,282.137 849.963,281.694 851.283,279.933C855.255,273.76 854.814,266.263 857.459,259.645C863.635,245.529 868.927,231.418 871.572,215.978C872.013,213.331 872.013,211.125 871.131,208.922C870.248,205.834 868.045,204.069 865.399,204.069C865.392,204.069 865.385,204.071 865.378,204.071C864.056,204.075 862.303,204.515 860.986,205.393C860.983,205.393 860.977,205.388 860.973,205.388C860.522,205.361 859.211,203.617 857.9,202.304C857.895,202.307 857.89,202.312 857.885,202.316C857.823,202.36 857.772,202.413 857.712,202.458C857.317,202.755 856.967,203.087 856.65,203.445C856.499,203.617 856.355,203.796 856.219,203.979C856.01,204.26 855.815,204.553 855.635,204.858C855.408,205.242 855.195,205.638 855.002,206.05C854.977,206.104 854.952,206.157 854.927,206.211C853.427,209.488 852.685,213.432 849.077,215.537C849.075,215.534 849.073,215.53 849.07,215.527C846.871,212.44 845.547,208.921 842.904,206.716C836.424,201.532 827.832,198.487 819.197,198.361C819.012,198.359 818.829,198.338 818.644,198.338C811.586,198.338 804.969,200.097 799.677,203.628C781.785,215.856 770.973,231.721 766.24,250.386C766.227,250.4 766.216,250.415 766.204,250.429C751.322,268.11 734.127,284.578 714.088,299.343C712.766,299.343 711.442,298.019 711.442,295.375C711.442,294.05 711.442,292.286 712.766,291.403C716.294,290.079 716.294,286.551 717.177,283.906C722.469,271.555 723.351,257.439 728.644,244.65C727.762,242.446 726.88,239.798 728.203,237.151C730.848,239.798 729.086,242.446 728.644,244.65C732.173,237.592 733.496,229.654 732.613,221.714C730.848,209.363 724.234,202.305 711.442,202.305C706.149,202.305 701.299,204.07 697.327,206.718C683.654,217.303 672.186,229.213 661.16,241.564C659.836,242.887 658.953,245.091 655.426,245.091C659.394,233.182 662.483,221.272 662.922,209.363C662.922,203.188 662.042,200.101 656.75,197.897C654.984,197.015 653.66,196.574 652.778,196.574C651.454,196.574 650.133,197.897 647.044,200.981C645.72,199.218 647.485,197.015 645.281,195.25C635.446,200.745 627.13,235.067 622.32,262.9L602.941,289.196C594.121,301.106 575.594,323.601 560.599,328.455C559.717,323.601 560.599,319.631 560.599,315.663C562.361,300.223 567.657,285.23 569.861,270.232C570.743,264.941 568.978,257.439 576.919,251.708C580.005,243.767 580.887,235.385 583.094,227.448C584.418,222.596 580.446,219.069 572.067,215.98C570.302,215.98 569.42,216.862 568.537,219.069C566.641,223.071 564.88,226.904 563.205,230.645C561.666,230.971 560.146,232.01 558.729,232.91C561.142,227.281 563.58,221.656 565.891,215.98C558.397,219.024 550.281,236.118 543.855,253.531C541.15,257.74 538.4,261.957 535.464,266.262C525.319,281.7 515.616,297.578 502.824,311.25C494.004,320.514 484.299,329.779 472.83,336.393C471.068,337.716 469.744,338.158 467.978,338.158C465.331,338.158 463.127,335.952 462.686,331.982C462.244,328.455 462.686,324.924 463.127,321.839C465.331,300.665 471.509,280.376 477.243,260.089C482.536,243.326 488.709,226.565 490.032,208.924C490.473,207.159 490.915,205.836 491.356,204.511C493.562,198.337 496.649,192.161 497.531,185.547C497.973,180.693 500.618,178.486 505.469,178.486C512.086,178.927 518.261,179.369 524.878,179.81C526.643,180.252 528.406,180.693 530.171,180.693C531.936,180.693 533.701,179.81 535.905,178.047C536.346,177.606 538.111,177.165 539.432,177.165C540.757,177.165 542.08,177.606 542.521,178.047C543.404,180.693 545.167,181.134 546.931,181.134C550.462,181.134 557.959,181.134 557.959,176.283C557.959,172.755 555.755,171.873 552.666,171.431C542.521,170.107 532.818,170.107 522.672,168.342C526.202,167.901 529.289,167.901 532.377,167.901C539.874,167.901 547.814,168.783 555.755,169.666C553.549,166.138 550.462,166.58 547.814,166.138C536.346,163.934 524.878,164.814 513.409,163.934C504.59,163.051 503.707,162.17 505.911,153.788L513.851,123.354C514.734,121.151 515.175,119.385 515.175,117.179C515.175,113.211 513.409,111.004 508.117,109.682C505.469,109.682 505.031,112.769 502.824,116.738C502.824,114.532 502.383,112.328 502.383,109.682C499.297,112.769 497.973,115.855 496.208,118.503C489.591,131.295 483.416,143.646 478.564,156.874C477.243,160.845 475.919,161.287 471.948,161.287C461.362,159.521 449.011,159.081 437.985,159.081C432.692,159.081 427.84,159.521 422.989,161.287C425.192,163.493 427.84,163.051 430.488,163.493C427.84,163.934 425.192,163.493 422.548,165.255C427.84,170.99 427.84,170.99 434.457,171.431C444.601,172.313 454.745,173.196 464.451,173.637C471.068,173.637 471.509,174.52 469.744,180.693C463.148,201.14 456.662,221.477 451.269,242.088C437.22,251.58 415.523,265.728 405.157,271.346C402.34,272.874 400.36,273.77 399.601,273.77C398.721,273.77 397.838,272.888 396.955,271.565C396.915,271.418 396.881,271.285 396.842,271.14C393.865,260.011 393.513,256.172 386.98,246.593C383.893,242.624 381.247,238.213 378.6,234.243C376.394,231.155 376.394,228.508 379.04,226.302C380.807,224.539 382.13,222.774 383.893,221.009C388.746,214.835 391.393,207.684 392.716,199.397C394.754,186.618 387.378,178.83 367.353,178.122C366.362,178.087 365.369,178.051 364.315,178.051C361.094,178.051 358.044,178.455 355.206,179.22C342.888,182.547 334.596,192.741 333.878,206.723C332.995,219.074 337.847,229.219 344.024,238.923C346.245,242.144 348.353,245.45 350.358,248.817C337.595,264.116 325.115,279.698 312.289,294.933C305.672,302.429 298.173,309.929 288.028,314.339C286.707,302.871 290.676,293.168 293.321,283.464C299.497,263.618 306.113,243.767 312.73,224.359C314.495,218.186 316.258,212.01 315.816,205.394C315.816,203.188 315.375,200.981 313.171,199.218C311.406,197.457 309.641,197.015 307.878,197.015C305.672,197.015 303.027,197.897 300.379,197.897C299.497,197.897 298.614,197.897 297.293,197.457C295.528,196.574 293.762,199.66 292.88,201.422C289.794,206.718 287.146,212.01 283.618,217.745C279.208,207.6 271.709,204.953 263.33,204.953C230.688,204.953 211.281,242.887 201.137,269.349C197.607,278.611 195.403,288.316 197.166,298.902C198.49,309.047 204.224,312.574 213.927,312.574C226.277,312.132 235.1,304.636 244.362,298.019C251.42,292.726 255.83,285.23 262.006,278.611C263.33,281.258 262.447,283.023 262.006,285.23C260.682,293.168 258.917,301.547 260.682,309.488C262.447,320.073 270.385,326.249 279.649,326.249C282.295,326.249 284.942,325.807 288.028,324.483C303.468,318.752 314.053,307.284 325.522,295.815C336.706,284.63 346.142,271.475 355.675,258.356C359.383,265.433 362.689,272.688 365.638,279.946C368.944,288.214 369.771,290.283 365.516,293.031C364.096,293.949 362.111,294.941 359.462,296.266C356.926,297.589 354.224,299.078 351.427,300.717C351.328,300.776 351.226,300.838 351.126,300.897C350.53,301.248 349.931,301.603 349.327,301.967C330.157,313.537 307.469,331.811 303.001,352.287C300.795,361.548 303.885,369.048 311.381,373.899C319.323,378.752 324.616,379.633 333.878,379.633C354.177,378.531 368.846,373.675 379.764,364.075C390.675,354.481 397.84,340.149 403.131,320.087C403.136,320.084 403.139,320.081 403.145,320.078C403.473,319.912 403.76,319.726 404.012,319.522C405.776,318.091 405.777,315.781 405.777,313.469C406.217,305.089 406.66,296.708 403.571,288.768C402.412,284.906 403.283,283.072 405.593,281.491C405.92,281.266 406.276,281.047 406.66,280.828C408.644,279.637 410.59,278.311 412.53,276.942C417.06,273.746 421.568,270.242 426.509,267.154C430.932,264.541 439.754,259.175 448.505,253.152L448.505,253.153C444.389,270.303 441.128,287.684 439.308,305.518C437.985,316.104 438.867,326.249 443.277,335.952C446.366,343.892 455.187,348.744 464.01,348.744C467.537,348.744 471.068,348.302 474.154,346.537C482.974,342.568 490.915,338.158 498.414,332.423C507.676,324.483 515.175,315.663 522.672,306.401C525.894,302.006 528.927,297.413 532.017,292.76C530.136,302.306 529.774,311.876 530.605,321.839C531.928,333.745 539.867,343.009 550.455,343.892C552.218,344.334 554.424,344.334 556.189,344.334C564.127,344.334 572.067,342.127 578.683,336.834C589.711,328.896 597.648,318.752 605.589,308.605C610.143,302.533 614.362,296.373 618.439,290.136C618.185,292.6 618.013,294.677 617.932,296.256C617.491,303.754 621.021,307.284 627.637,307.284C628.52,307.284 629.4,306.842 630.724,306.842C636.899,305.96 641.751,305.078 641.309,296.698C641.309,291.844 654.984,274.203 658.07,270.672C665.57,261.852 673.949,253.032 681.007,243.767C685.858,237.592 692.034,233.624 697.767,228.772C699.092,231.42 697.767,233.182 696.885,235.385C691.593,251.708 686.741,268.469 684.537,285.669C683.654,292.726 682.772,299.782 684.978,306.842C687.182,313.015 693.357,318.31 700.857,317.869C709.236,316.987 717.177,316.104 723.793,310.37C731.731,303.312 737.906,295.375 744.523,287.434C750.545,280.283 757.194,273.441 763.677,266.386C763.686,266.377 763.695,266.367 763.705,266.357C763.406,270.486 763.326,274.712 763.51,279.05C764.392,293.167 777.181,301.546 790.415,301.546C791.457,301.546 792.505,301.511 793.552,301.443C800.927,300.964 808.22,298.796 812.469,294.931C814.667,292.731 817.307,290.531 820.822,287.898C820.833,287.89 820.841,287.883 820.85,287.877C820.85,293.608 818.203,297.138 817.32,301.109C815.997,307.282 812.469,311.254 807.176,314.338C806.916,314.502 806.648,314.661 806.386,314.824C777.869,332.681 743.617,347.015 726.135,376.736C724.298,380.003 722.928,383.269 721.961,386.537C720.681,390.857 720.141,395.179 720.274,399.5C720.304,400.486 720.366,401.472 720.466,402.459C721.026,408 722.656,413.542 725.253,419.083C728.171,425.183 732.388,429.653 737.763,432.371C741.059,434.038 744.802,435.023 748.963,435.302C749.299,435.325 749.612,435.386 749.955,435.4C770.684,435.4 790.091,431.433 802,412.464C803.859,409.264 805.547,406.204 807.152,403.204C821.925,375.603 826.824,355.384 837.168,323.163C840.698,312.573 845.108,303.752 854.814,296.697C868.927,286.994 881.278,275.525 894.509,264.94C895.939,263.807 897.324,262.629 898.683,261.425C898.687,261.422 898.691,261.419 898.694,261.416C905.255,271.225 910.601,281.911 914.956,292.626C917.162,298.142 917.988,300.209 916.226,302.019C915.172,303.103 913.188,304.095 910.015,305.681C899.868,310.976 886.413,319.579 876.716,330.026C870.898,336.292 866.434,343.221 864.846,350.498C863.082,357.908 865.552,363.907 871.55,367.789C877.904,371.671 882.138,372.376 889.548,372.376C907.808,371.383 920.375,366.595 929.383,356.882C936.389,349.327 941.243,338.791 944.949,324.744C944.949,324.742 944.949,324.74 944.95,324.738C945.475,324.475 945.87,324.146 946.167,323.768C947.066,322.627 947.067,321.036 947.067,319.444C947.419,312.74 947.773,306.035 945.302,299.683C944.64,297.479 944.806,296.101 945.625,295.033C946.117,294.391 946.845,293.861 947.773,293.331C953.066,290.155 958.008,285.921 963.652,282.392C970.445,278.379 990.205,266.26 997.641,257.856C998.704,256.655 999.514,255.53 1000,254.515C998.941,254.162 997.883,253.808 996.824,253.808Z" style="fill:white;fill-rule:nonzero;"/>
    </g>
</svg>
